<?xml version="1.0" standalone="no"?>
<!DOCTYPE svg PUBLIC "-//W3C//DTD SVG 20010904//EN"
 "http://www.w3.org/TR/2001/REC-SVG-20010904/DTD/svg10.dtd">
<svg version="1.0" xmlns="http://www.w3.org/2000/svg"
 width="1280.000000pt" height="1105.000000pt" viewBox="0 0 1280.000000 1105.000000"
 preserveAspectRatio="xMidYMid meet">
<metadata>
Created by potrace 1.15, written by Peter Selinger 2001-2017
</metadata>
<g transform="translate(0.000000,1105.000000) scale(0.100000,-0.100000)"
fill="#9e9e9e" stroke="none">
<path d="M6418 11039 c-113 -26 -235 -128 -286 -236 -24 -52 -27 -70 -27 -168
0 -99 3 -116 27 -168 49 -103 156 -198 257 -228 l43 -13 -7 -165 c-4 -91 -8
-167 -9 -168 0 -1 -356 70 -791 157 -2337 470 -3581 720 -3591 724 -6 2 -14
21 -17 41 -8 48 -51 103 -93 121 -79 33 -167 10 -217 -58 -29 -38 -34 -125
-12 -172 58 -122 237 -127 303 -8 l23 41 47 -15 c26 -8 75 -22 110 -31 34 -10
62 -20 62 -24 0 -5 -1115 -3341 -1474 -4408 -86 -256 -156 -466 -156 -468 0
-2 -138 -3 -306 -3 l-305 0 42 -60 c117 -167 354 -340 623 -454 360 -153 754
-230 1317 -258 703 -34 1376 67 1800 270 223 107 432 280 512 423 20 36 37 69
37 72 0 4 -89 7 -198 7 l-197 0 -69 203 c-73 216 -724 2155 -1086 3232 -120
358 -277 824 -348 1038 -72 213 -127 387 -121 387 5 0 161 -45 347 -99 595
-176 2368 -698 3027 -893 281 -83 551 -162 600 -176 50 -14 94 -28 98 -32 5
-4 -3 -221 -18 -481 -14 -261 -34 -634 -45 -829 -11 -195 -29 -524 -40 -730
-11 -206 -29 -535 -40 -730 -11 -195 -29 -524 -40 -730 -11 -206 -29 -535 -40
-730 -52 -941 -63 -1151 -105 -1920 -25 -454 -54 -989 -65 -1190 -11 -201 -27
-491 -35 -645 -9 -154 -20 -302 -26 -330 -34 -177 -227 -325 -494 -379 -44 -9
-277 -41 -518 -71 -887 -112 -1089 -161 -1335 -327 -128 -87 -243 -215 -287
-321 l-15 -37 3200 0 3200 0 -15 37 c-59 142 -215 294 -400 390 -220 113 -449
162 -1180 253 -459 57 -561 72 -656 101 -206 60 -356 192 -393 344 -8 35 -21
190 -31 365 -15 290 -28 522 -75 1375 -11 204 -56 1029 -100 1835 -44 806 -87
1587 -95 1735 -8 149 -24 434 -35 635 -59 1085 -72 1317 -90 1655 -11 204 -24
440 -30 525 -5 85 -8 156 -6 158 2 2 543 -105 1202 -238 660 -133 1550 -311
1979 -397 429 -86 783 -159 788 -163 4 -3 -161 -510 -367 -1126 -206 -615
-574 -1716 -817 -2446 l-444 -1328 -222 0 c-124 0 -223 -4 -223 -9 0 -17 88
-127 153 -190 326 -317 904 -516 1665 -572 241 -17 818 -6 1032 20 490 60 871
181 1137 362 106 72 260 228 305 308 20 36 34 69 32 73 -3 4 -130 8 -283 8
l-277 0 -58 173 c-74 220 -790 2351 -1076 3202 -120 358 -283 845 -363 1083
-120 354 -143 432 -129 432 9 -1 67 -11 127 -24 l110 -23 6 -50 c4 -27 11 -59
17 -70 19 -36 80 -82 117 -89 163 -30 274 151 169 276 -36 42 -74 60 -128 60
-60 0 -93 -14 -132 -55 l-32 -35 -444 131 c-399 118 -751 221 -2508 739 -283
84 -703 207 -933 275 -231 68 -421 126 -424 128 -5 6 -22 233 -23 309 l0 46
51 7 c74 10 178 66 233 125 154 165 150 417 -9 576 -28 29 -70 61 -93 73 -89
45 -205 61 -294 40z m-4008 -1109 c73 -217 230 -687 350 -1045 120 -357 403
-1200 629 -1872 l410 -1223 -1524 0 c-885 0 -1525 4 -1525 9 0 8 169 516 1152
3453 199 598 366 1084 369 1080 3 -4 66 -185 139 -402z m8299 -2078 c73 -218
231 -689 351 -1047 120 -357 403 -1200 629 -1872 l410 -1223 -1524 -2 c-839
-2 -1525 0 -1525 3 0 3 318 955 706 2115 388 1160 729 2180 757 2266 29 87 54
158 57 158 3 0 65 -179 139 -398z"/>
</g>
</svg>
